<?xml version="1.0" encoding="UTF-8"?>
<svg xmlns="http://www.w3.org/2000/svg" xmlns:xlink="http://www.w3.org/1999/xlink" version="1.1" id="Layer_1" x="0px" y="0px" viewBox="0 0 448.8 47.3" style="enable-background:new 0 0 448.8 47.3;" xml:space="preserve">
<style type="text/css">
	.st0{fill:#FFFFFF;}
	.st1{fill:#FF5F00;}
	.st2{fill:#EB001B;}
	.st3{fill:#F79E1B;}
	.st4{fill:url(#SVGID_1_);}
	.st5{fill:#EFCF2D;}
	.st6{fill:#457196;}
	.st7{fill:#D52A00;}
	.st8{fill:#D52A0F;}
	.st9{fill:#314983;}
	.st10{clip-path:url(#SVGID_00000088832385930550722910000003862051933366042256_);}
</style>
<g>
	<path class="st0" d="M8.3,40.4v-3c0-0.2,0-0.5-0.1-0.7c-0.1-0.2-0.2-0.4-0.3-0.6c-0.2-0.2-0.3-0.3-0.5-0.4   c-0.2-0.1-0.4-0.2-0.7-0.2H6.4c-0.3,0-0.7,0-0.9,0.2c-0.3,0.1-0.5,0.4-0.7,0.6c-0.2-0.3-0.4-0.5-0.7-0.6s-0.6-0.2-0.9-0.2   c-0.3,0-0.5,0-0.8,0.2c-0.2,0.1-0.5,0.3-0.6,0.5v-0.6h-1v4.7h1v-2.6c0-0.1,0-0.3,0-0.4c0-0.1,0.1-0.3,0.2-0.4   c0.1-0.1,0.2-0.2,0.3-0.3c0.1-0.1,0.3-0.1,0.4-0.1c0.1,0,0.1,0,0.2,0c0.7,0,1,0.4,1,1.2v2.6h1v-2.6c0-0.2,0-0.3,0-0.5   c0-0.2,0.1-0.3,0.2-0.4c0.1-0.1,0.2-0.2,0.4-0.3c0.2-0.1,0.3-0.1,0.5-0.1c0.7,0,1,0.4,1,1.2v2.6L8.3,40.4z M23.7,35.7H22v-1.4h-1   v1.4H20v0.9h1v2.2c0,1.1,0.4,1.7,1.6,1.7c0.5,0,0.9-0.1,1.3-0.4l-0.3-0.9c-0.3,0.2-0.6,0.3-0.9,0.3c-0.5,0-0.7-0.3-0.7-0.8v-2.1   h1.7L23.7,35.7z M32.5,35.6c-0.3,0-0.5,0.1-0.7,0.2c-0.2,0.1-0.4,0.3-0.5,0.5v-0.6h-1v4.7h1v-2.6c0-0.8,0.3-1.2,1-1.2   c0.2,0,0.4,0,0.6,0.1l0.3-1C33,35.6,32.8,35.6,32.5,35.6L32.5,35.6z M19.2,36.1c-0.6-0.3-1.3-0.5-1.9-0.5c-1.2,0-2,0.6-2,1.5   c0,0.8,0.6,1.2,1.6,1.4l0.5,0.1c0.6,0.1,0.8,0.2,0.8,0.5c0,0.4-0.4,0.6-1.1,0.6c-0.6,0-1.1-0.2-1.6-0.5l-0.5,0.8   c0.6,0.4,1.3,0.6,2.1,0.6c1.4,0,2.2-0.6,2.2-1.5s-0.6-1.3-1.7-1.4l-0.5-0.1c-0.4-0.1-0.8-0.1-0.8-0.5c0-0.3,0.3-0.6,0.9-0.6   c0.5,0,1,0.1,1.5,0.4L19.2,36.1z M46.9,35.6c-0.3,0-0.5,0.1-0.7,0.2c-0.2,0.1-0.4,0.3-0.5,0.5v-0.6h-1v4.7h1v-2.6   c0-0.8,0.3-1.2,1-1.2c0.2,0,0.4,0,0.6,0.1l0.3-1C47.4,35.6,47.1,35.6,46.9,35.6L46.9,35.6z M33.6,38c0,0.3,0,0.6,0.1,0.9   c0.1,0.3,0.3,0.6,0.5,0.8c0.2,0.2,0.5,0.4,0.8,0.5c0.3,0.1,0.6,0.2,0.9,0.2h0.2c0.6,0,1.2-0.2,1.7-0.6l-0.5-0.8   c-0.4,0.3-0.8,0.4-1.2,0.4c-0.4,0-0.7-0.2-1-0.5c-0.3-0.3-0.4-0.6-0.4-1c0-0.4,0.1-0.7,0.4-1c0.3-0.3,0.6-0.5,1-0.5   c0.4,0,0.9,0.2,1.2,0.4l0.5-0.8c-0.5-0.4-1.1-0.6-1.7-0.6c-0.3,0-0.6,0-0.9,0.1c-0.3,0.1-0.6,0.3-0.8,0.5c-0.2,0.2-0.4,0.5-0.6,0.7   c-0.1,0.3-0.2,0.6-0.2,0.9L33.6,38L33.6,38z M43.3,38v-2.3h-1v0.6c-0.2-0.2-0.4-0.4-0.7-0.5c-0.3-0.1-0.5-0.2-0.8-0.2   c-0.7,0-1.3,0.3-1.8,0.7c-0.5,0.5-0.7,1.1-0.7,1.7c0,0.7,0.3,1.3,0.7,1.7c0.5,0.5,1.1,0.7,1.8,0.7c0.3,0,0.6,0,0.8-0.2   c0.3-0.1,0.5-0.3,0.7-0.5v0.6h1V38z M39.4,38c0-0.4,0.2-0.7,0.5-1c0.3-0.3,0.6-0.4,1-0.4c0.4,0,0.7,0.2,1,0.4   c0.3,0.3,0.4,0.6,0.4,1c0,0.4-0.2,0.7-0.4,1c-0.3,0.3-0.6,0.4-1,0.4c-0.4,0-0.8-0.1-1-0.4c-0.3-0.3-0.4-0.6-0.5-1V38z M27,35.6   c-0.7,0-1.3,0.3-1.7,0.7c-0.5,0.5-0.7,1.1-0.7,1.7c0,0.7,0.3,1.3,0.8,1.7c0.5,0.5,1.1,0.7,1.8,0.7c0.7,0,1.4-0.2,2-0.6l-0.5-0.8   c-0.4,0.3-0.9,0.5-1.4,0.5c-0.3,0-0.7-0.1-0.9-0.3c-0.3-0.2-0.4-0.5-0.5-0.9h3.5V38C29.2,36.6,28.3,35.6,27,35.6L27,35.6z M27,36.5   c0.3,0,0.6,0.1,0.8,0.3c0.2,0.2,0.4,0.5,0.4,0.8h-2.5c0-0.3,0.2-0.6,0.4-0.8C26.3,36.6,26.6,36.5,27,36.5L27,36.5z M52.8,38.1v-4.3   h-1v2.5c-0.2-0.2-0.4-0.4-0.7-0.5c-0.3-0.1-0.5-0.2-0.8-0.2c-0.7,0-1.3,0.3-1.8,0.7c-0.5,0.5-0.7,1.1-0.7,1.7   c0,0.7,0.3,1.3,0.7,1.7c0.5,0.5,1.1,0.7,1.8,0.7c0.3,0,0.6,0,0.8-0.2c0.3-0.1,0.5-0.3,0.7-0.5v0.6h1L52.8,38.1z M54.6,39.7   c0.1,0,0.1,0,0.2,0c0.1,0,0.1,0.1,0.2,0.1c0,0,0.1,0.1,0.1,0.1c0,0.1,0,0.2,0,0.4c0,0.1-0.1,0.1-0.1,0.1c0,0-0.1,0.1-0.2,0.1   c-0.1,0-0.1,0-0.2,0c-0.1,0-0.2,0-0.3-0.1c-0.1-0.1-0.1-0.1-0.2-0.2c0-0.1,0-0.1,0-0.2c0-0.1,0-0.1,0-0.2c0-0.1,0.1-0.1,0.1-0.2   c0,0,0.1-0.1,0.2-0.1C54.4,39.7,54.5,39.7,54.6,39.7L54.6,39.7z M54.6,40.6c0,0,0.1,0,0.1,0c0,0,0.1,0,0.1-0.1   c0.1-0.1,0.1-0.2,0.1-0.2c0-0.1,0-0.2-0.1-0.2c0,0-0.1-0.1-0.1-0.1c0,0-0.1,0-0.1,0c0,0-0.1,0-0.1,0c0,0-0.1,0-0.1,0.1   c-0.1,0.1-0.1,0.2-0.1,0.2c0,0.1,0,0.2,0.1,0.2c0,0,0.1,0.1,0.1,0.1C54.5,40.6,54.5,40.6,54.6,40.6L54.6,40.6z M54.6,40   c0,0,0.1,0,0.1,0c0,0,0,0,0,0c0,0,0,0,0,0.1c0,0,0,0,0,0c0,0,0,0,0,0c0,0-0.1,0-0.1,0l0.1,0.2h-0.1l-0.1-0.2h0v0.2h-0.1V40L54.6,40   z M54.5,40.1v0.1h0.1c0,0,0,0,0.1,0c0,0,0,0,0,0c0,0,0,0,0,0h-0.1L54.5,40.1z M49,38.1c0-0.4,0.2-0.7,0.4-1c0.3-0.3,0.6-0.4,1-0.4   c0.4,0,0.7,0.2,1,0.4c0.3,0.3,0.4,0.6,0.4,1s-0.1,0.7-0.4,1c-0.3,0.3-0.6,0.4-1,0.4c-0.4,0-0.7-0.1-1-0.4c-0.3-0.3-0.4-0.6-0.4-1   C49,38.1,49,38.1,49,38.1L49,38.1z M14.1,38.1v-2.4h-1v0.6c-0.2-0.2-0.4-0.4-0.7-0.5c-0.3-0.1-0.5-0.2-0.8-0.2   c-0.7,0-1.3,0.3-1.8,0.7c-0.5,0.5-0.7,1.1-0.7,1.7c0,0.7,0.3,1.3,0.7,1.7c0.5,0.5,1.1,0.7,1.8,0.7c0.3,0,0.6,0,0.8-0.2   c0.3-0.1,0.5-0.3,0.7-0.5v0.6h1V38.1z M10.3,38.1c0-0.3,0.2-0.7,0.4-0.9c0.3-0.2,0.6-0.4,0.9-0.4c0.3,0,0.7,0.2,0.9,0.4   c0.2,0.2,0.4,0.6,0.4,0.9c0,0.3-0.1,0.7-0.4,0.9c-0.2,0.2-0.6,0.4-0.9,0.4c-0.3,0-0.7-0.1-0.9-0.4c-0.3-0.2-0.4-0.6-0.4-0.9   C10.3,38.1,10.3,38.1,10.3,38.1z"></path>
	<path class="st1" d="M21.1,9.1h11.8v21H21.1V9.1z"></path>
	<path class="st2" d="M21.9,19.6c0-2,0.5-4,1.3-5.8c0.9-1.8,2.2-3.4,3.8-4.7c-2-1.5-4.4-2.5-6.9-2.8c-2.5-0.3-5,0.2-7.3,1.3   c-2.3,1.1-4.2,2.8-5.5,4.9c-1.3,2.1-2.1,4.6-2.1,7.1s0.7,5,2.1,7.1c1.3,2.1,3.3,3.8,5.5,4.9c2.3,1.1,4.8,1.5,7.3,1.3   c2.5-0.3,4.9-1.2,6.9-2.8c-1.6-1.2-2.9-2.8-3.8-4.7C22.3,23.6,21.9,21.6,21.9,19.6z"></path>
	<path class="st3" d="M48.8,19.6c0,2.5-0.7,4.9-2.1,7.1s-3.3,3.8-5.5,4.9c-2.3,1.1-4.8,1.5-7.3,1.3c-2.5-0.3-4.9-1.2-6.9-2.8   c1.6-1.2,2.9-2.8,3.8-4.7c0.9-1.8,1.4-3.8,1.4-5.8c0-2-0.5-4-1.4-5.8c-0.9-1.8-2.2-3.4-3.8-4.7c2-1.5,4.4-2.5,6.9-2.8   c2.5-0.3,5,0.2,7.3,1.3c2.3,1.1,4.2,2.8,5.5,4.9C48.1,14.6,48.8,17.1,48.8,19.6L48.8,19.6z"></path>
	<path class="st3" d="M48.2,29.1v-1.5h0.6v-0.3h-1.5v0.3h0.6v1.5H48.2z M51.1,29.1v-1.8h-0.5l-0.5,1.3l-0.5-1.3h-0.4v1.8h0.3v-1.3   l0.5,1.2h0.3l0.5-1.2v1.4L51.1,29.1z"></path>
</g>
<linearGradient id="SVGID_1_" gradientUnits="userSpaceOnUse" x1="66.231" y1="73.7921" x2="124.231" y2="73.7921" gradientTransform="matrix(1 0 0 -1 0 96.62)">
	<stop offset="0" style="stop-color:#241F5D"></stop>
	<stop offset="1" style="stop-color:#034EA1"></stop>
</linearGradient>
<path class="st4" d="M88.3,14.1l-7.6,17.4h-5L72,17.7c-0.2-0.9-0.4-1.2-1.1-1.5c-1.1-0.6-3-1.1-4.6-1.5l0.1-0.5h8  c0.5,0,1,0.2,1.4,0.5c0.4,0.3,0.7,0.8,0.7,1.3l2,10.1l4.9-11.8H88.3z M107.7,25.9c0-4.6-6.6-4.8-6.6-6.9c0-0.6,0.6-1.3,2-1.5  c1.6-0.1,3.2,0.1,4.6,0.8l0.8-3.7c-1.4-0.5-2.9-0.8-4.4-0.8c-4.6,0-7.9,2.4-7.9,5.8c0,2.5,2.3,3.9,4.1,4.7c1.8,0.9,2.4,1.4,2.4,2.2  c0,1.2-1.5,1.7-2.8,1.7c-2.4,0-3.7-0.6-4.8-1.1l-0.8,3.8c1.1,0.5,3.1,0.9,5.2,0.9C104.4,31.8,107.7,29.5,107.7,25.9L107.7,25.9z   M119.9,31.6h4.3l-3.8-17.4h-4c-0.4,0-0.8,0.1-1.2,0.3s-0.6,0.6-0.8,0.9l-7,16.1h4.9l1-2.6h6L119.9,31.6z M114.7,25.4l2.5-6.5  l1.4,6.5H114.7z M94.9,14.1l-3.9,17.4h-4.7l3.9-17.4H94.9z"></path>
<g>
	<path class="st0" d="M182.7,39.4c-0.6,0-0.9-0.4-0.9-1.2c0-0.7,0.3-1,0.9-1c0.6,0,0.9,0.4,0.9,1.2C183.6,39,183.3,39.4,182.7,39.4z    M182.6,40.5c1.4,0,2.5-1,2.5-2.3c0-1.2-1-2.1-2.4-2.1c-1.4,0-2.5,1-2.5,2.3C180.3,39.5,181.3,40.5,182.6,40.5z M178.2,34.8   l-1.4,2.2l-1.6-2.2h-1.4v5.5h1.4v-3.1l1.1,1.5h0.8l1-1.5v3.1h1.5v-5.5H178.2L178.2,34.8z M170.6,39.4c-0.6,0-0.9-0.4-0.9-1.2   c0-0.7,0.3-1,0.9-1c0.6,0,0.9,0.4,0.9,1.2C171.5,39,171.2,39.4,170.6,39.4z M170.6,40.5c1.4,0,2.5-1,2.5-2.3c0-1.2-1-2.1-2.4-2.1   c-1.4,0-2.5,1-2.5,2.3C168.2,39.5,169.2,40.5,170.6,40.5z M166.1,34.8l-1.4,2.2l-1.6-2.2h-1.4v5.5h1.4v-3.1l1.1,1.5h0.8l1-1.5v3.1   h1.5v-5.5H166.1L166.1,34.8z M157,34.8v3l-2.5-3h-1.4v5.5h1.4v-3.2l2.6,3.2h1.3v-5.5H157z M149.1,36v4.3h1.5V36h1.8v-1.3h-5.1V36   H149.1z M145.1,34.8l-1.4,2.2l-1.6-2.2h-1.4v5.5h1.4v-3.1l1.1,1.5h0.8l1-1.5v3.1h1.5v-5.5H145.1L145.1,34.8z"></path>
	<path class="st0" d="M185.7,25.2V9.8c0-0.7-0.5-1.2-1.2-1.2h-44.6v24h38.5c0.3,0,0.6-0.1,0.8-0.3l6.1-6.1h0   C185.6,25.8,185.7,25.5,185.7,25.2z"></path>
	<path class="st5" d="M184.5,9.8h-20.7v21.6h14.5l6.1-6.1V9.8z"></path>
	<path class="st0" d="M179.3,9.8h-3.6c-0.7-1.4-1.7-2.6-3-3.4c-0.1-0.1-0.2-0.1-0.3-0.1c-0.2,0-0.3,0-0.5,0.2l-1.2,1.4   c-0.7-0.3-1.4-0.5-2.2-0.7c0,0-0.3-0.1-0.4,0.1c-0.4,0.6-3.4,6.1-3.5,6.3c-0.2,0.4-0.5,0.8,0,1c0.3,0,3.3,0.6,6.3,1.9   c0,0.2,0,0.4,0.1,0.7l-1.9,10.4c-0.1,0.4,0.2,0.9,0.6,1c0,0-0.2-0.1,5.6,1.7c0.2,0.1,0.7,0.1,0.8-0.4c0-0.1,3.6-19.2,3.6-19.2   C180,10,179.6,9.8,179.3,9.8"></path>
	<path class="st5" d="M162.6,9.8h-21.6v21.6h21.6V9.8z"></path>
	<path d="M151.9,24.8c5.6,0,10.2-1.9,10.2-4.2s-4.6-4.2-10.2-4.2c-5.6,0-10.2,1.9-10.2,4.2S146.2,24.8,151.9,24.8z"></path>
	<path class="st0" d="M154.4,19.5l0.3-1.1h-3.5l-0.3,1.1h1.1l-0.6,2.2h1.2l0.6-2.2H154.4z"></path>
	<path class="st0" d="M150.9,18.5h-1.7l-1.1,2.4v-2.4h-1.7l-1.1,4.2h1.2l0.7-2.7v2.7h0.9l1.3-2.7l-0.6,2.7h1.1L150.9,18.5z"></path>
	<path class="st0" d="M158.4,18.5h-1.1l-0.6,2.2l-0.5-2.2H155l-1,4.2h1.1l0.6-2.3l0.6,2.3h1.2L158.4,18.5z"></path>
	<path class="st0" d="M151.5,21.7l-0.3,1h1.2l0.3-1H151.5z"></path>
	<path class="st6" d="M172.3,6.8L171.1,8c1.5,0.8,2.8,2,3.8,3.5c0.2,0.4,0.5,0.8,0.7,1.2c0.3,0.7,0.6,1.4,0.8,2.1   c0-0.7-0.1-1.3-0.2-1.9c-0.5-2.8-1.8-4.9-3.8-6.2C172.4,6.7,172.3,6.7,172.3,6.8C172.3,6.7,172.3,6.8,172.3,6.8"></path>
	<path d="M176.4,11.9c0.2,0.5,0.7,2.9,0.9,8.6c0.5-2.6,1.7-9.2,1.7-9.2c0.2-0.7-0.2-0.8-0.4-0.8l-2.7-0.1   C176.1,10.8,176.3,11.3,176.4,11.9z"></path>
	<path class="st7" d="M171.4,20.5C171.4,20.5,171.4,20.6,171.4,20.5c1.1,0.3,4.2,1.1,5.2,1.4c0,0,0,0,0,0c0,0,0,0,0,0c0,0,0,0,0-0.1   c0,0,0,0,0,0c-0.4-2.2-2.8-3.9-5.3-5.1C171.5,17.7,171.6,19.1,171.4,20.5"></path>
	<path d="M181.1,10.5l-0.9-0.8c-0.3-0.3-0.6-0.4-1-0.4l-3.9,0c0.1,0.2,0.2,0.3,0.3,0.5h3.6c0.3,0,0.7,0.2,0.5,1   c0,0-3.6,19.1-3.6,19.2c-0.1,0.5-0.6,0.4-0.8,0.4c-5.9-1.8-5.6-1.7-5.6-1.7c-0.4-0.1-0.7-0.6-0.6-1l1.9-10.4c0-0.2,0-0.5-0.1-0.7   c-0.1,0-0.2-0.1-0.3-0.1l-2,11.1c-0.1,0.7,0.3,1.4,1,1.6l6.1,1.8c0.1,0,0.3,0.1,0.4,0.1c0.2,0,0.4,0,0.5-0.1l1.1-0.5   c0.4-0.2,0.8-0.6,0.8-1.1l3-17.6C181.6,11.3,181.5,10.8,181.1,10.5"></path>
	<path d="M173.9,23.6c0,0.2,0.1,0.4,0.3,0.4l1.7,0.4c0.2,0.1,0.4-0.1,0.4-0.3l0.1-0.8c0-0.2-0.1-0.4-0.3-0.4l-1.7-0.4   c-0.2,0-0.4,0.1-0.4,0.3L173.9,23.6L173.9,23.6z"></path>
	<path d="M170.6,22.7c0,0.2,0.1,0.4,0.3,0.4l1.6,0.4c0.2,0.1,0.4-0.1,0.4-0.3l0.1-0.7c0-0.2-0.1-0.4-0.3-0.4l-1.6-0.4   c-0.2,0-0.4,0.1-0.4,0.3L170.6,22.7L170.6,22.7z"></path>
	<path d="M173.5,25.7c0,0.2,0.1,0.4,0.3,0.5l1.7,0.5c0.2,0.1,0.4-0.1,0.4-0.3l0.1-0.8c0-0.2-0.1-0.4-0.3-0.5l-1.7-0.5   c-0.2-0.1-0.4,0.1-0.4,0.3L173.5,25.7L173.5,25.7z"></path>
	<path d="M170.2,24.7c0,0.2,0.1,0.4,0.3,0.4l1.6,0.4c0.2,0.1,0.4-0.1,0.4-0.2l0.1-0.7c0-0.2-0.1-0.4-0.3-0.4l-1.6-0.4   c-0.2-0.1-0.4,0.1-0.4,0.2L170.2,24.7L170.2,24.7z"></path>
	<path d="M173.1,27.7c0,0.2,0.1,0.4,0.3,0.5l1.7,0.5c0.2,0.1,0.4,0,0.4-0.2l0.1-0.8c0-0.2-0.1-0.4-0.3-0.5l-1.7-0.5   c-0.2-0.1-0.4,0.1-0.4,0.2L173.1,27.7L173.1,27.7z"></path>
	<path d="M169.7,26.7c0,0.2,0.1,0.4,0.3,0.4l1.6,0.5c0.2,0.1,0.4-0.1,0.4-0.2l0.1-0.7c0-0.2-0.1-0.4-0.3-0.4l-1.6-0.5   c-0.2-0.1-0.4,0.1-0.4,0.2L169.7,26.7L169.7,26.7z"></path>
	<path class="st6" d="M168.4,7.6l-3.6,6.4c0,0,0,0.1,0,0.1c0,0,0,0,0.1,0c1.5,0.2,10,2.2,11.7,6.2c0,0,0.2,0.4,0.2,0.4l0-0.4   c0,0-0.1-4.4-1.6-7.4c-0.2-0.4-0.4-0.8-0.6-1.2C173.1,9.5,171.1,8.1,168.4,7.6C168.5,7.6,168.5,7.6,168.4,7.6   C168.4,7.6,168.4,7.6,168.4,7.6"></path>
	<path class="st0" d="M170.7,15.8c2,0,3.6-1.6,3.6-3.6s-1.6-3.6-3.6-3.6c-2,0-3.6,1.6-3.6,3.6S168.7,15.8,170.7,15.8z"></path>
	<path class="st6" d="M173.7,12.3c0,1.6-1.3,3-3,3c-1.6,0-3-1.3-3-3c0-1.6,1.3-3,3-3C172.3,9.3,173.7,10.6,173.7,12.3z M174,12.3   c0-1.8-1.5-3.3-3.3-3.3s-3.3,1.5-3.3,3.3c0,1.8,1.5,3.3,3.3,3.3S174,14.1,174,12.3z"></path>
</g>
<g>
	<path class="st8" d="M277.1,16.2c0.7,0,1.4,0.1,2,0.4c1.5,0.8,2.3,2.2,2,3.9c-0.2,1.6-1,2.9-2.1,4.1c-1.2,1.2-2.5,2.2-4,3   c-0.7,0.4-1.4,0.6-2.2,0.6c-0.7,0-1.3-0.4-1.4-1.2c0-0.4,0-0.8,0.2-1.2c0.3-0.8,0.8-1.4,1.5-1.9c0.4-0.2,0.7-0.3,1.2-0.1   c0.6,0.2,0.8,0.8,0.4,1.3c-0.3,0.3-0.7,0.6-1,1c-0.2,0.2-0.4,0.5-0.6,0.7c-0.1,0.1-0.1,0.3,0,0.4c0.1,0.1,0.3,0.1,0.4,0.1   c0.3-0.1,0.6-0.2,0.9-0.4c1.8-1,3.2-2.3,4.1-4.1c0.2-0.5,0.4-1,0.4-1.5c0-0.9-0.7-1.5-1.6-1.2c-0.5,0.1-1,0.3-1.5,0.6   c-0.8,0.5-1.6,1-2.3,1.5c-0.6,0.4-1.2,0.7-1.9,0.9c-0.4,0.1-0.7,0.1-1.1,0c-0.7-0.1-1.2-0.7-1.2-1.4c0-0.5,0.1-0.9,0.3-1.2   c0.4-0.7,0.9-1.4,1.6-1.9c1.2-0.9,2.4-1.6,3.8-2C275.9,16.3,276.5,16.2,277.1,16.2L277.1,16.2z"></path>
	<path class="st8" d="M289.9,21.8c0.1-0.3,0.1-0.7,0-1c-0.1-0.4-0.4-0.6-0.8-0.7c-0.6-0.1-1.2,0-1.8,0.2c-0.4,0.1-0.8,0.3-1.2,0.5   c-0.2-0.4-0.4-0.9-0.6-1.4c0.1-0.1,0.1-0.1,0.2-0.2c1.2-0.6,2.4-1,3.8-0.9c0.9,0.1,1.8,0.4,2.4,1.2c0.3,0.4,0.5,0.8,0.6,1.3   c0.1,0.4,0.1,0.7,0.1,1.1c0,1.5,0,3.1,0,4.6c0,0.2-0.1,0.4-0.3,0.6c-0.6,0.5-1.3,0.9-2.1,1.1c-0.6,0.2-1.3,0.2-1.9,0.2   c-1.6-0.1-2.8-1-3.3-2.3c-0.5-1.5,0-3.3,1.9-3.9c0.5-0.2,1-0.3,1.6-0.3c0.4,0,0.9,0,1.3,0C289.8,21.8,289.9,21.8,289.9,21.8   L289.9,21.8z M289.9,23.5c-0.5,0-0.9,0-1.4,0c-0.6,0.1-0.9,0.4-1.2,0.9c-0.2,0.5-0.2,0.9,0,1.4c0.1,0.4,0.4,0.6,0.8,0.8   c0.5,0.2,1,0.1,1.4-0.1c0.2-0.1,0.3-0.2,0.3-0.4c0-0.7,0-1.5,0-2.2C290,23.7,289.9,23.6,289.9,23.5z"></path>
	<path class="st8" d="M317.8,23.6h-5.2c0,0.2,0,0.4,0,0.6c0,0.3,0.1,0.7,0.2,1c0.2,0.9,0.9,1.4,1.8,1.4c0.8,0,1.6-0.2,2.4-0.6   c0.1-0.1,0.2-0.1,0.3-0.2l0.7,1.3c-0.1,0.1-0.1,0.1-0.2,0.2c-1.2,0.8-2.5,1.1-3.9,1c-1.5-0.2-2.6-1-3.2-2.3c-0.4-0.9-0.6-1.9-0.5-3   c0.1-1,0.3-1.9,0.7-2.7c0.5-1,1.3-1.7,2.5-1.9c0.8-0.2,1.6-0.1,2.4,0.2c0.8,0.3,1.3,0.9,1.6,1.6C317.8,21.3,317.8,22.4,317.8,23.6   L317.8,23.6z M315.3,22.1c0-0.6,0-1.2-0.4-1.6c-0.4-0.4-1-0.5-1.5-0.1c-0.5,0.4-0.7,1-0.7,1.7C313.6,22.1,314.4,22.1,315.3,22.1z"></path>
	<path class="st8" d="M305.1,16.2c0.8-0.1,1.6-0.3,2.5-0.4v2.6c0.5,0.1,1.1,0,1.6,0.1v1.7c-0.1,0-0.2,0-0.3,0c-0.3,0-0.7,0-1,0   c-0.2,0-0.3,0.1-0.3,0.3c0,0.1,0,0.1,0,0.2c0,1.5,0,3.1,0,4.6c0,0.1,0,0.1,0,0.2c0,0.7,0.4,1.1,1.1,1.2c0.2,0,0.3,0,0.5,0   c0,0.5,0,1,0,1.5c-0.9,0.2-1.7,0.1-2.5-0.2c-0.5-0.2-0.9-0.6-1.2-1.1c-0.2-0.5-0.3-1-0.3-1.5c0-1.8,0-3.6,0-5.4c0-1.1,0-2.3,0-3.4   L305.1,16.2L305.1,16.2z"></path>
	<path class="st8" d="M323.4,26.7v1.4c-0.1,0-0.1,0.1-0.1,0.1c-0.8,0.1-1.6,0.1-2.3-0.2c-0.8-0.3-1.2-0.9-1.4-1.7   c-0.1-0.4-0.1-0.8-0.1-1.3c0-2.8,0-5.7,0-8.5c0-0.1,0-0.2,0-0.3l2.4-0.4c0,0.2,0,0.3,0,0.4c0,3,0,6.1,0,9.1c0,0.2,0,0.3,0,0.5   c0.1,0.4,0.3,0.6,0.7,0.7C322.8,26.6,323.1,26.7,323.4,26.7L323.4,26.7z"></path>
	<path class="st8" d="M304.4,18.6l-0.7,1.5c-0.2,0-0.3,0-0.5-0.1c-0.7-0.1-1.3,0.1-1.8,0.3c-0.3,0.1-0.4,0.3-0.4,0.6   c0,2.2,0,4.4,0,6.6v0.4c-0.3,0.1-2,0.1-2.4,0c0-0.1,0-0.2,0-0.4c0-2.4,0-4.8,0-7.2c0-0.3,0.1-0.4,0.3-0.6c1.1-1,2.5-1.6,4-1.6   c0.4,0,0.9,0.1,1.3,0.2C304.3,18.5,304.3,18.6,304.4,18.6z"></path>
	<path class="st8" d="M296.6,28.1h-2.3c0-0.1,0-0.2,0-0.4c0-2.9,0-5.7,0-8.6c0-0.4,0-0.4,0.4-0.4c0.5-0.1,1-0.2,1.5-0.3   c0.1,0,0.3,0,0.4-0.1C296.7,18.8,296.7,27.7,296.6,28.1L296.6,28.1z"></path>
	<path class="st8" d="M297,16.1c0.1,0.9-0.7,1.6-1.5,1.6c-0.9,0-1.5-0.6-1.5-1.5c0-0.9,0.7-1.6,1.6-1.6   C296.4,14.6,297,15.3,297,16.1z"></path>
	<path class="st9" d="M346.5,23.8c0-0.9,0.2-1.9,0.7-2.7c0.6-1.2,1.6-1.9,2.9-2.2c0.9-0.2,1.8-0.1,2.6,0.2c1.2,0.4,2,1.3,2.4,2.4   c0.6,1.6,0.5,3.2-0.2,4.7c-0.7,1.5-2.1,2.3-3.7,2.4c-0.9,0-1.7-0.1-2.5-0.6c-1.1-0.7-1.8-1.7-2-3C346.6,24.6,346.5,24.2,346.5,23.8   z M348.9,23.6c0,0.5,0,1,0.2,1.5c0.4,1.2,1.4,1.5,2.4,1.3c0.7-0.1,1.1-0.6,1.3-1.2c0.3-0.6,0.3-1.3,0.2-1.9c0-0.5-0.1-1-0.4-1.4   c-0.4-0.8-1.1-1.1-2-1.1c-0.9,0-1.4,0.5-1.7,1.3C348.9,22.6,348.9,23.1,348.9,23.6z"></path>
	<path class="st9" d="M345.3,21.7c-0.2-0.1-0.3-0.1-0.4-0.1c-0.9-0.6-2-0.8-3.1-0.6c-1.7,0.2-2.5,1.5-2.5,2.8c0,0.5,0.1,1,0.2,1.4   c0.3,0.9,1,1.4,2,1.6c0.4,0.1,0.8,0.1,1.2,0c0.5,0,0.6-0.3,0.6-0.7c0-0.7,0-1.3-0.1-2c0-0.1,0-0.1,0-0.2c0.5,0,1,0,1.4,0   c0.5,0.1,0.9,0.5,0.9,1c0,0.6,0,1.2,0,1.8c-0.1,1-0.6,1.7-1.6,2c-1.6,0.4-3.2,0.3-4.7-0.5c-1.3-0.8-2-1.9-2.2-3.4   c-0.2-1.3,0.1-2.5,0.9-3.6c0.8-1.1,1.9-1.7,3.2-2c0.7-0.1,1.4-0.2,2.1-0.1c0.5,0.1,1,0.2,1.4,0.5c0.5,0.4,0.8,0.8,0.7,1.5   C345.3,21.2,345.3,21.4,345.3,21.7L345.3,21.7z"></path>
	<path class="st9" d="M327.2,17V19c0.4,0,0.7,0,1.1,0c0.3,0,0.7,0,1,0h1.1c0,0.4,0.1,0.8,0,1.1c-0.1,0.5-0.4,0.7-0.9,0.8   c-0.2,0-0.4,0-0.6,0c-0.4,0-0.9,0-1.3,0c-0.3,0-0.3,0-0.3,0.3c0,1.2,0,2.5,0,3.7c0,0.7,0.4,1.2,1,1.3c0.6,0.1,1.2,0.1,1.8-0.2   c0.1,0,0.2-0.1,0.3-0.1c0.4,1.1-0.2,2.1-1.3,2.3c-0.7,0.1-1.4,0.1-2.1-0.1c-1-0.3-1.7-1-1.9-2.1c-0.1-0.4-0.1-0.8-0.1-1.3   c0-1.8,0-3.6,0-5.4c0-0.4,0-0.7,0.1-1.1c0.1-0.4,0.4-0.8,0.8-1.1C326.2,17,326.6,16.8,327.2,17L327.2,17z"></path>
	<path class="st9" d="M310.7,32.4c-0.1,0.3-0.2,0.7-0.3,1c-0.3,1-0.7,2.1-1,3.1c-0.1,0.2-0.1,0.3-0.3,0.3c-0.3,0-0.6,0-1,0   c-0.2,0-0.3-0.1-0.3-0.2c-0.4-1.3-0.8-2.5-1.2-3.8c0-0.1-0.1-0.2-0.1-0.3l-0.1,0c-0.2,1.4-0.4,2.9-0.5,4.3c-0.4,0.1-0.8,0-1.2,0   c0-0.8,0.2-1.5,0.3-2.3c0.1-0.8,0.2-1.5,0.3-2.3c0.1-0.7,0.2-1.5,0.3-2.3c0.4,0,0.9,0,1.3,0c0.2,0,0.2,0.1,0.2,0.3   c0.2,0.8,0.5,1.5,0.8,2.3c0.2,0.7,0.5,1.4,0.7,2.1c0.1,0.2,0.1,0.4,0.2,0.6h0.1c0.2-0.6,0.4-1.2,0.6-1.8c0.2-0.6,0.4-1.2,0.6-1.7   c0.2-0.6,0.4-1.2,0.6-1.8h1.4c0.3,2.3,0.6,4.5,0.9,6.8c-0.5,0-0.9,0-1.4,0c-0.2-1.5-0.4-2.9-0.5-4.3L310.7,32.4L310.7,32.4z"></path>
	<path class="st9" d="M339.4,30.2c1.6,2.1,3.5,3.3,6.2,3.3c2.6-0.1,4.7-1.1,6.3-3.2c0,0.1,0,0.2,0,0.3c0,0.5,0,0.9-0.1,1.4   c-0.1,0.9-0.6,1.6-1.3,2.2c-1.1,1-2.4,1.7-3.9,1.8c-2.5,0.3-4.7-0.5-6.4-2.4c-0.6-0.6-0.8-1.4-0.9-2.3   C339.4,31,339.4,30.6,339.4,30.2L339.4,30.2L339.4,30.2z"></path>
	<path class="st9" d="M332.1,19.2c0.4,0,0.8,0,1.2,0c0.6,0.1,1,0.6,1.1,1.2c0,0.2,0,0.4,0,0.6c0,1.4,0,2.7,0,4.1c0,0.2,0,0.4,0,0.6   c0.1,0.4,0.3,0.7,0.7,0.7c0.3,0,0.5,0,0.8,0.1c0.1,0,0.2,0,0.3,0c0.1,0.4,0,0.8-0.1,1.2c-0.1,0.3-0.3,0.5-0.5,0.5   c-1,0.3-2.7,0.1-3.2-1.3c-0.2-0.4-0.2-0.8-0.2-1.2c0-2.1,0-4.1,0-6.2C332.1,19.4,332.1,19.4,332.1,19.2L332.1,19.2z"></path>
	<path class="st9" d="M331.6,39.1c0-0.2,0-0.4,0.1-0.5c0-0.2,0.1-0.3,0.1-0.5c0.2,0,0.3,0,0.5,0c0.5,0,0.8-0.2,1-0.7   c0.1-0.1,0.1-0.3,0.2-0.4c0.1-0.2,0.1-0.4,0-0.6c-0.5-1.3-1-2.7-1.5-4c-0.1-0.2-0.1-0.3-0.2-0.5c0.5,0,0.9,0,1.3,0   c0.1,0,0.2,0.2,0.2,0.3c0.3,0.9,0.6,1.7,0.9,2.6c0,0.1,0.1,0.2,0.1,0.3h0.1c0-0.1,0.1-0.2,0.1-0.3c0.3-0.8,0.5-1.7,0.8-2.5   c0.1-0.3,0.1-0.3,0.4-0.3c0.3,0,0.6,0,1,0c0,0.1,0,0.2-0.1,0.3c-0.7,1.8-1.3,3.6-2,5.4c-0.1,0.3-0.3,0.7-0.5,1   c-0.5,0.6-1.1,0.8-1.9,0.8C332,39.1,331.8,39.1,331.6,39.1L331.6,39.1z"></path>
	<path class="st9" d="M313.9,34.2c0-0.4,0.1-0.8,0.2-1.2c0.3-0.7,0.9-1.2,1.6-1.4c0.5-0.1,1.1-0.1,1.6,0.1c1,0.3,1.4,1.1,1.6,2.1   c0.1,0.5,0,1-0.2,1.5c-0.4,1.1-1.4,1.6-2.5,1.6c-0.9,0-1.6-0.4-2.1-1.3C314,35.2,313.9,34.7,313.9,34.2z M317.6,34.4   c0-0.6-0.1-0.9-0.3-1.3c-0.2-0.4-0.5-0.6-1-0.5c-0.4,0-0.7,0.3-0.9,0.7c0,0.1-0.1,0.3-0.1,0.4c-0.1,0.5-0.1,1,0.2,1.5   c0.2,0.4,0.5,0.6,0.9,0.6c0.4,0,0.8-0.2,0.9-0.7C317.5,34.9,317.5,34.6,317.6,34.4L317.6,34.4z"></path>
	<path class="st9" d="M324.8,36.7c-0.3,0-0.6,0-0.8,0c-0.1,0-0.3,0-0.4,0c0-0.2,0-0.3,0-0.4c0-0.9,0-1.7,0-2.6c0-0.1,0-0.3,0-0.4   c-0.1-0.4-0.4-0.6-0.8-0.5c-0.3,0.1-0.6,0.3-0.8,0.5c-0.1,0.1-0.1,0.2-0.1,0.4c0,0.9,0,1.7,0,2.6c0,0.1,0,0.3,0,0.4   c-0.4,0.1-0.9,0-1.3,0c0-1.7,0-3.3,0-4.9h1.2l0.1,0.5c0.1-0.1,0.2-0.2,0.3-0.2c0.5-0.4,1.1-0.5,1.8-0.4c0.6,0.1,0.8,0.5,0.9,1.1   c0,0.2,0,0.3,0,0.5c0,1,0,2.1,0,3.1C324.8,36.5,324.8,36.6,324.8,36.7L324.8,36.7z"></path>
	<path class="st9" d="M330.8,34.5h-3c-0.1,0.5,0.2,1,0.6,1.2c0.4,0.2,0.8,0.2,1.2,0c0.2-0.1,0.4-0.2,0.7-0.2l0.4,0.8   c-0.1,0.1-0.1,0.1-0.2,0.1c-0.8,0.4-1.7,0.5-2.6,0.2c-0.7-0.2-1.2-0.7-1.5-1.4c-0.2-0.7-0.3-1.4,0-2.1c0.4-1.1,1.5-1.8,2.7-1.6   c1,0.2,1.5,0.8,1.7,1.8C330.8,33.8,330.8,34.1,330.8,34.5z M329.5,33.6c0-0.4-0.1-0.7-0.4-0.9c-0.3-0.2-0.7-0.2-1,0   c-0.3,0.2-0.5,0.5-0.5,0.9C328.3,33.6,328.9,33.6,329.5,33.6L329.5,33.6z"></path>
	<path class="st9" d="M355.2,17.7c-1.1-1.2-2.4-1.9-4.1-1.9c-1.6,0-3,0.6-4.1,1.9c-0.1-0.2-0.1-0.7-0.1-1c0.1-0.6,0.4-1.1,0.8-1.5   c0.8-0.7,1.7-1.1,2.8-1.2c1.5-0.1,2.8,0.3,3.9,1.2c0.5,0.5,0.8,1,0.8,1.8C355.3,17.3,355.3,17.5,355.2,17.7L355.2,17.7L355.2,17.7z   "></path>
	<path class="st9" d="M334.5,17c0,0.8-0.6,1.3-1.3,1.3c-0.7,0-1.3-0.6-1.3-1.3c0-0.7,0.5-1.3,1.3-1.3C334,15.7,334.6,16.4,334.5,17   L334.5,17z"></path>
</g>
<g>
	<g>
		<defs>
			<rect id="SVGID_00000127724233075333494260000016293023469441132479_" x="201.9" y="7.8" width="45" height="29"></rect>
		</defs>
		<clipPath id="SVGID_00000023249779364143280980000005141644794117989562_">
			<use xlink:href="#SVGID_00000127724233075333494260000016293023469441132479_" style="overflow:visible;"></use>
		</clipPath>
		<g style="clip-path:url(#SVGID_00000023249779364143280980000005141644794117989562_);">
			<path d="M242.9,7.8H206c-0.2,0-0.3,0-0.5,0c-0.1,0-0.3,0-0.4,0c-0.3,0-0.6,0-0.8,0.1C204,8,203.7,8,203.5,8.2     c-0.3,0.1-0.5,0.3-0.7,0.5s-0.4,0.4-0.5,0.7c-0.1,0.3-0.2,0.5-0.3,0.8c-0.1,0.3-0.1,0.6-0.1,0.9c0,0.1,0,0.3,0,0.4     c0,0.2,0,0.3,0,0.5v20.9c0,0.2,0,0.3,0,0.5c0,0.1,0,0.3,0,0.4c0,0.3,0,0.6,0.1,0.9c0,0.3,0.1,0.6,0.3,0.8     c0.1,0.3,0.3,0.5,0.5,0.7c0.2,0.2,0.4,0.4,0.7,0.5c0.3,0.1,0.5,0.2,0.8,0.3c0.3,0.1,0.6,0.1,0.8,0.1c0.1,0,0.3,0,0.4,0     c0.2,0,0.3,0,0.5,0h36.9c0.2,0,0.3,0,0.5,0c0.1,0,0.3,0,0.4,0c0.3,0,0.6,0,0.8-0.1c0.3-0.1,0.5-0.1,0.8-0.3     c0.3-0.1,0.5-0.3,0.7-0.5c0.2-0.2,0.4-0.4,0.5-0.7c0.1-0.3,0.2-0.5,0.3-0.8c0.1-0.3,0.1-0.6,0.1-0.9c0-0.1,0-0.3,0-0.4     c0-0.2,0-0.3,0-0.5V11.9c0-0.2,0-0.3,0-0.5c0-0.1,0-0.3,0-0.4c0-0.3,0-0.6-0.1-0.9c-0.1-0.3-0.1-0.6-0.3-0.8     c-0.1-0.3-0.3-0.5-0.5-0.7c-0.2-0.2-0.4-0.4-0.7-0.5c-0.3-0.1-0.5-0.2-0.8-0.3c-0.3-0.1-0.6-0.1-0.8-0.1c-0.1,0-0.3,0-0.4,0     C243.2,7.8,243,7.8,242.9,7.8z"></path>
			<path class="st0" d="M242.9,8.8l0.5,0c0.1,0,0.2,0,0.4,0c0.2,0,0.5,0,0.7,0.1c0.2,0,0.4,0.1,0.5,0.2c0.2,0.1,0.3,0.2,0.4,0.3     c0.1,0.1,0.2,0.3,0.3,0.4c0.1,0.2,0.1,0.3,0.2,0.5c0,0.2,0.1,0.5,0.1,0.7c0,0.1,0,0.2,0,0.4c0,0.2,0,0.3,0,0.5v20.9     c0,0.2,0,0.3,0,0.5c0,0.1,0,0.2,0,0.4c0,0.2,0,0.5-0.1,0.7c0,0.2-0.1,0.4-0.2,0.5c-0.1,0.2-0.2,0.3-0.3,0.4     c-0.1,0.1-0.3,0.2-0.4,0.3c-0.2,0.1-0.3,0.1-0.5,0.2c-0.2,0-0.5,0.1-0.7,0.1c-0.1,0-0.2,0-0.4,0c-0.2,0-0.3,0-0.5,0H206     c0,0,0,0,0,0c-0.1,0-0.3,0-0.5,0c-0.1,0-0.2,0-0.4,0c-0.2,0-0.5,0-0.7-0.1c-0.2,0-0.4-0.1-0.5-0.2c-0.2-0.1-0.3-0.2-0.4-0.3     c-0.1-0.1-0.2-0.3-0.3-0.4c-0.1-0.2-0.1-0.3-0.2-0.5c0-0.2-0.1-0.5-0.1-0.7c0-0.1,0-0.2,0-0.4v-0.4v-0.1V11.9v-0.1v-0.4     c0-0.1,0-0.2,0-0.4c0-0.2,0-0.5,0.1-0.7c0-0.2,0.1-0.4,0.2-0.5c0.1-0.2,0.2-0.3,0.3-0.4c0.1-0.1,0.3-0.2,0.4-0.3     c0.2-0.1,0.3-0.1,0.5-0.2c0.2,0,0.5-0.1,0.7-0.1c0.1,0,0.2,0,0.4,0l0.5,0H242.9z"></path>
			<path d="M214.2,17.6c0.4-0.5,0.6-1.1,0.6-1.8c-0.6,0-1.3,0.4-1.7,0.9c-0.4,0.4-0.7,1.1-0.6,1.7C213.2,18.4,213.8,18.1,214.2,17.6     z"></path>
			<path d="M214.8,18.5c-0.9-0.1-1.7,0.5-2.1,0.5s-1.1-0.5-1.8-0.5c-0.9,0-1.8,0.6-2.3,1.4c-1,1.7-0.3,4.3,0.7,5.7     c0.5,0.7,1,1.5,1.8,1.4c0.7,0,1-0.5,1.8-0.5c0.9,0,1.1,0.5,1.8,0.4c0.8,0,1.2-0.7,1.7-1.4c0.5-0.8,0.8-1.5,0.8-1.6     c0,0-1.5-0.6-1.5-2.3c0-1.4,1.2-2.1,1.2-2.1C216.2,18.6,215.1,18.5,214.8,18.5z"></path>
			<path d="M222.8,16.6c2,0,3.4,1.4,3.4,3.4c0,2-1.4,3.4-3.4,3.4h-2.2v3.5h-1.6V16.6H222.8z M220.5,22h1.8c1.4,0,2.2-0.8,2.2-2.1     c0-1.3-0.8-2.1-2.2-2.1h-1.8V22z"></path>
			<path d="M226.6,24.8c0-1.3,1-2.1,2.8-2.2l2.1-0.1v-0.6c0-0.8-0.6-1.3-1.5-1.3c-0.9,0-1.4,0.4-1.6,1.1h-1.5     c0.1-1.4,1.2-2.4,3.1-2.4c1.8,0,3,1,3,2.5v5.2h-1.5v-1.2h0c-0.4,0.8-1.4,1.4-2.4,1.4C227.6,27.1,226.6,26.1,226.6,24.8z      M231.4,24.1v-0.6l-1.8,0.1c-0.9,0.1-1.4,0.5-1.4,1.1c0,0.7,0.5,1.1,1.4,1.1C230.6,25.8,231.4,25.1,231.4,24.1z"></path>
			<path d="M234.4,29.7v-1.3c0.1,0,0.4,0,0.5,0c0.7,0,1.1-0.3,1.3-1.1c0,0,0.1-0.5,0.1-0.5l-2.7-7.6h1.7l1.9,6.2h0l1.9-6.2h1.6     l-2.8,8c-0.6,1.8-1.4,2.4-2.9,2.4C234.9,29.8,234.5,29.7,234.4,29.7z"></path>
		</g>
	</g>
</g>
<g transform="translate(0,633) scale(0.1,-0.1)">
	<path id="path6" class="st0" d="M3812,6192.4l-58.4,0.5v-38.8h96.8l-100.6-129v-32.8h62.2v-37.8h37.3v37.8h63.5   c0.5,1.5,0.7,5.6-2.7,9.3c-5.6,6.2-10.1,12.7-14.1,20.9c-1.9,3.6-3.3,8-3.8,8.4c-12.5,0.6-84.4,0.4-84.4,0.9l100.7,129.8v30.8   h-59.2v38.2H3812V6192.4z"></path>
	<path id="path8" class="st0" d="M4081.6,6210.4c-0.9-0.4-1.2-20-1.2-94.4c0-100.5-0.1-98.8,4.4-107.5c4-7.7,13.8-14.7,24.7-17.5   c6-1.6,23.8-1.8,30.7-0.4c8.8,1.9,10.5,4.5,7,11.4c-2.2,4.3-5.2,13.6-5.9,18.8c-1,6.1-2.2,7.1-9.7,6.9c-3.6-0.1-6.9,0.2-7.6,0.5   c-3.6,2.3-3.6,2.9-3.6,93c0,57.9-0.3,86.9-0.9,88.1c-0.9,1.6-2,1.7-18.9,1.6C4090.8,6210.9,4082.1,6210.7,4081.6,6210.4z"></path>
	<path id="path10" class="st0" d="M4163.1,6210.1c-1.2-0.7-1.3-12.1-1.3-93.5c0-87.7,0.1-93.1,1.7-99.2c3-12.1,9.9-19.5,22.8-24.9   c5-2,7.2-2.4,17.2-2.7c13.4-0.4,20.3,0.6,27.1,4.1c6.8,3.3,6.9,5.6,1.2,14c-2.3,3.4-5.9,9.2-7.8,12.8l-3.6,6.7l-6.5,0.1   c-8.1,0.2-8.9,0.5-10.4,4.4c-1.2,2.6-1.3,15.8-1.3,89.3c0,57.9-0.3,86.9-0.9,88.1c-0.9,1.6-2,1.7-18.9,1.7   C4172.5,6211,4163.8,6210.6,4163.1,6210.1z"></path>
	<path id="path12" class="st0" d="M4399.5,6191c-7.2-3.3-10.9-9-11-16.9c-0.1-6.8,2.7-11.9,8.3-15.6c6.9-4.7,18-3.4,23.8,2.8   c7.4,7.9,5.9,21.6-3.2,27.7C4412.7,6192.4,4404.4,6193.2,4399.5,6191z M4413.8,6187.7c10-5.1,11.6-18,3-25.6   c-3.6-3.2-6.2-3.9-11.8-3.4c-15.5,1.5-18.5,23.2-4.1,29.7C4404.8,6190.2,4409.3,6190,4413.8,6187.7z"></path>
	<path id="path14" class="st0" d="M4400.2,6183.7c-0.6-1.1-0.7-17.6-0.1-19.3c0.3-0.8,1.1-1.4,1.8-1.4c0.9,0,1.2,1.2,1.2,4.4   c0,4,0.2,4.4,2,4.4c1.4,0,2.7-1.2,4.6-4.4c1.6-2.7,3.2-4.4,4.2-4.4c2.1,0,2,0.4-1.2,5.2c-2,2.8-2.5,4.2-1.7,4.4   c2.3,0.8,4.5,3.7,4.5,6c0,4-2.8,5.8-9.2,5.8C4403.1,6184.4,4400.3,6184.1,4400.2,6183.7z M4410.9,6180.9c0.7-0.4,1.1-1.7,0.9-2.8   c-0.3-1.9-0.8-2.1-4.4-2.4l-4.3-0.3v3.1c0,3.1,0.1,3.2,3.4,3.2C4408.2,6181.7,4410.3,6181.3,4410.9,6180.9z"></path>
	<path id="path16" class="st0" d="M3969.8,6154.6c-0.4-0.2-3.9-1-7.6-1.8c-22.8-5.2-43-22.8-51.5-45c-4.7-12.3-6.4-21.8-6.5-35.9   c-0.1-19.8,3.9-34.4,13.1-48.3c10.3-15.6,25.4-26.1,45-31.5c6.7-1.8,9.6-2,24.9-2c15.1,0,18.2,0.3,24.5,2   c15.6,4.4,29,11.6,39.7,21.8c6.8,6.4,6.8,8.2-0.2,13.5c-2.8,2.2-8,7-11.4,10.8c-4.3,4.5-6.8,6.7-8.2,6.7c-1.2,0-4.1-1.8-6.8-4.4   c-9.5-8.6-21.5-12.7-37.2-12.6c-14.4,0.1-24.9,3.8-31.6,11.5c-3.4,3.8-7.6,12.5-8.5,17.4l-0.5,3.3h55.4c30.5,0,56,0.4,56.6,0.8   c2.9,1.9,3.6,14.8,1.5,28.8c-5.1,33.6-25.2,56.2-56.7,63.7c-5.6,1.3-10.2,1.8-20.2,1.7C3976.5,6155,3970.3,6154.8,3969.8,6154.6z    M3993.5,6120.3c6.5-1.3,14.5-5.8,18.2-10c3.5-3.9,7-10.9,7.9-15.5l0.6-2.8H3984h-36.2l0.6,2.8c2.7,12,13,22,25.8,25.2   C3979.9,6121.4,3987.6,6121.5,3993.5,6120.3z"></path>
	<path id="path18" class="st0" d="M4292.9,6153.8c-31.6-7-52.9-29.2-59.5-62c-4-19.4-1.8-42,5.8-58.1c10.3-22.4,29.1-36.9,54.7-42.1   c8.1-1.7,11.3-1.9,24-1.5c10.8,0.4,16.5,1,21.5,2.3c15.2,4,28.5,11.3,38.8,21.1c7.8,7.6,7.8,7.9-0.6,14.9   c-3.9,3.2-9.2,8.3-11.6,11.2c-5.8,6.7-7.3,6.8-13.8,0.9c-9.7-8.8-21.2-12.7-37.3-12.6c-22.6,0.1-35.7,9.8-40,29.3l-0.6,2.3h112.6   c3.8,2.8,2.4,31.9-2.2,45.4c-0.9,2.7-3.3,8-5.2,11.7c-10.4,19.9-27,32.3-50.1,37.2C4321.7,6155.3,4299.9,6155.3,4292.9,6153.8z    M4320.6,6120.3c6-1.3,12.3-4.4,16.7-8.4c3.7-3.5,9.8-14.4,9.8-17.8v-2.1h-72.2l0.6,2.5C4280.2,6113.4,4299.7,6124.7,4320.6,6120.3   z"></path>
</g>
</svg>
